<?xml version="1.0" standalone="no"?>
<!DOCTYPE svg PUBLIC "-//W3C//DTD SVG 20010904//EN"
 "http://www.w3.org/TR/2001/REC-SVG-20010904/DTD/svg10.dtd">
<svg version="1.0" xmlns="http://www.w3.org/2000/svg"
 width="539.000000pt" height="724.000000pt" viewBox="0 0 539.000000 724.000000"
 preserveAspectRatio="xMidYMid meet">

<g transform="translate(0.000000,724.000000) scale(0.100000,-0.100000)"
fill="#000000" stroke="none">
<path d="M4085 7234 c-105 -21 -136 -30 -193 -55 -184 -83 -377 -289 -577
-619 -97 -159 -172 -222 -326 -276 -255 -89 -686 -119 -923 -65 -177 41 -319
145 -612 449 -240 248 -360 345 -517 422 -105 51 -241 94 -279 88 -36 -5 -50
-78 -50 -268 -1 -295 75 -685 249 -1275 l56 -189 -22 -271 c-41 -502 -47 -724
-25 -907 l6 -47 81 -4 82 -3 -83 -2 -82 -2 6 -27 c3 -16 8 -36 11 -45 2 -10 6
-30 9 -45 21 -123 94 -272 179 -361 60 -64 78 -76 247 -160 232 -114 395 -173
608 -217 110 -23 321 -45 436 -45 l102 0 23 -57 c67 -169 176 -356 275 -471
l48 -55 18 23 c10 12 18 26 18 31 0 4 -20 30 -44 58 -73 83 -176 246 -222 353
-24 57 -44 108 -44 113 0 6 62 18 138 27 185 24 333 58 542 128 197 65 398
149 589 245 128 64 129 64 135 40 11 -45 8 -468 -4 -525 -18 -83 -33 -104
-159 -240 -150 -161 -204 -224 -321 -379 -59 -76 -106 -129 -122 -135 -33 -12
-70 -2 -107 30 -39 32 -142 188 -209 313 l-51 95 -23 -40 c-37 -63 -128 -195
-175 -252 -24 -30 -43 -57 -43 -62 0 -4 20 -44 45 -89 218 -395 298 -613 409
-1116 20 -88 40 -174 45 -191 9 -31 4 -37 -334 -401 -188 -203 -354 -374 -369
-381 -43 -19 -70 -14 -122 21 -54 36 -645 515 -656 532 -22 30 -1 403 32 595
41 233 99 401 266 777 58 131 106 245 106 253 1 15 -183 526 -200 556 -7 12
-34 -28 -114 -163 -58 -98 -126 -214 -150 -258 -53 -93 -111 -145 -163 -145
-55 0 -88 42 -131 172 -52 160 -82 222 -151 313 -95 126 -119 184 -131 311
l-7 79 -48 -125 c-64 -170 -103 -298 -121 -401 -15 -87 -14 -120 13 -374 21
-189 22 -223 11 -308 -13 -103 -46 -200 -100 -294 -119 -208 -277 -721 -299
-975 -24 -271 -34 -347 -62 -460 -31 -129 -78 -259 -139 -393 l-39 -85 172 0
c465 0 4892 22 4894 24 5 5 -67 489 -98 655 -104 568 -250 1073 -388 1351 -51
101 -87 155 -162 237 -126 139 -193 269 -304 589 -121 347 -220 552 -390 810
l-82 124 43 56 c24 31 41 60 38 65 -3 5 -1 9 4 9 20 0 99 210 87 230 -3 6 -2
10 3 10 18 0 43 172 54 372 12 204 3 484 -26 763 -11 108 -11 128 6 205 119
549 170 897 169 1160 -1 257 -46 420 -146 538 -37 42 -52 47 -110 36z m-1007
-2031 c85 -40 142 -135 142 -236 0 -132 -127 -257 -261 -257 -90 0 -191 65
-234 149 -57 112 -12 269 97 337 77 49 163 51 256 7z m-1423 -62 c90 -41 145
-126 145 -226 0 -141 -104 -244 -245 -245 -114 0 -209 69 -240 174 -19 62 -19
80 0 144 23 76 84 139 160 163 42 14 140 9 180 -10z m1843 -898 c-21 -2 -57
-2 -80 0 -24 2 -7 4 37 4 44 0 63 -2 43 -4z m-230 -10 c-16 -2 -40 -2 -55 0
-16 2 -3 4 27 4 30 0 43 -2 28 -4z m425 0 c-13 -2 -35 -2 -50 0 -16 2 -5 4 22
4 28 0 40 -2 28 -4z m-545 -10 c-10 -2 -28 -2 -40 0 -13 2 -5 4 17 4 22 1 32
-1 23 -4z m645 0 c-7 -2 -21 -2 -30 0 -10 3 -4 5 12 5 17 0 24 -2 18 -5z
m-730 -10 c-7 -2 -21 -2 -30 0 -10 3 -4 5 12 5 17 0 24 -2 18 -5z m810 0 c-7
-2 -21 -2 -30 0 -10 3 -4 5 12 5 17 0 24 -2 18 -5z m-2725 -10 c-10 -2 -26 -2
-35 0 -10 3 -2 5 17 5 19 0 27 -2 18 -5z m1845 0 c-7 -2 -19 -2 -25 0 -7 3 -2
5 12 5 14 0 19 -2 13 -5z m934 1 c-3 -3 -12 -4 -19 -1 -8 3 -5 6 6 6 11 1 17
-2 13 -5z m-2674 -11 c-7 -2 -21 -2 -30 0 -10 3 -4 5 12 5 17 0 24 -2 18 -5z
m1680 0 c-7 -2 -19 -2 -25 0 -7 3 -2 5 12 5 14 0 19 -2 13 -5z m1050 0 c-7 -2
-19 -2 -25 0 -7 3 -2 5 12 5 14 0 19 -2 13 -5z m-2670 -10 c-7 -2 -19 -2 -25
0 -7 3 -2 5 12 5 14 0 19 -2 13 -5z m1560 0 c-7 -2 -19 -2 -25 0 -7 3 -2 5 12
5 14 0 19 -2 13 -5z m1154 1 c-3 -3 -12 -4 -19 -1 -8 3 -5 6 6 6 11 1 17 -2
13 -5z m-2650 -10 c-3 -3 -12 -4 -19 -1 -8 3 -5 6 6 6 11 1 17 -2 13 -5z
m2690 0 c-3 -3 -12 -4 -19 -1 -8 3 -5 6 6 6 11 1 17 -2 13 -5z m-2630 -10 c-3
-3 -12 -4 -19 -1 -8 3 -5 6 6 6 11 1 17 -2 13 -5z m2670 0 c-3 -3 -12 -4 -19
-1 -8 3 -5 6 6 6 11 1 17 -2 13 -5z m-2570 -20 c-3 -3 -12 -4 -19 -1 -8 3 -5
6 6 6 11 1 17 -2 13 -5z m1160 0 c-3 -3 -12 -4 -19 -1 -8 3 -5 6 6 6 11 1 17
-2 13 -5z m-1120 -10 c-3 -3 -12 -4 -19 -1 -8 3 -5 6 6 6 11 1 17 -2 13 -5z
m1080 0 c-3 -3 -12 -4 -19 -1 -8 3 -5 6 6 6 11 1 17 -2 13 -5z m661 -1 c-38
-2 -98 -2 -135 0 -38 2 -7 3 67 3 74 0 105 -1 68 -3z m-295 -10 c-13 -2 -33
-2 -45 0 -13 2 -3 4 22 4 25 0 35 -2 23 -4z m510 0 c-18 -2 -48 -2 -65 0 -18
2 -4 4 32 4 36 0 50 -2 33 -4z m-2455 -10 c-15 -2 -42 -2 -60 0 -18 2 -6 4 27
4 33 0 48 -2 33 -4z m1845 0 c-7 -2 -21 -2 -30 0 -10 3 -4 5 12 5 17 0 24 -2
18 -5z m725 0 c-10 -2 -28 -2 -40 0 -13 2 -5 4 17 4 22 1 32 -1 23 -4z m-2335
-10 c-7 -2 -21 -2 -30 0 -10 3 -4 5 12 5 17 0 24 -2 18 -5z m1530 0 c-7 -2
-19 -2 -25 0 -7 3 -2 5 12 5 14 0 19 -2 13 -5z m880 0 c-7 -2 -21 -2 -30 0
-10 3 -4 5 12 5 17 0 24 -2 18 -5z m-2315 -10 c-10 -2 -26 -2 -35 0 -10 3 -2
5 17 5 19 0 27 -2 18 -5z m1375 0 c-7 -2 -19 -2 -25 0 -7 3 -2 5 12 5 14 0 19
-2 13 -5z m1010 0 c-7 -2 -19 -2 -25 0 -7 3 -2 5 12 5 14 0 19 -2 13 -5z
m-2300 -10 c-7 -2 -19 -2 -25 0 -7 3 -2 5 12 5 14 0 19 -2 13 -5z m997 -3 c-8
-5 -19 -10 -25 -10 -5 0 -3 5 5 10 8 5 20 10 25 10 6 0 3 -5 -5 -10z m237 4
c-3 -3 -12 -4 -19 -1 -8 3 -5 6 6 6 11 1 17 -2 13 -5z m1126 -1 c-7 -2 -19 -2
-25 0 -7 3 -2 5 12 5 14 0 19 -2 13 -5z m-2306 -9 c-3 -3 -12 -4 -19 -1 -8 3
-5 6 6 6 11 1 17 -2 13 -5z m1140 0 c-3 -3 -12 -4 -19 -1 -8 3 -5 6 6 6 11 1
17 -2 13 -5z m1220 0 c-3 -3 -12 -4 -19 -1 -8 3 -5 6 6 6 11 1 17 -2 13 -5z
m-1260 -10 c-3 -3 -12 -4 -19 -1 -8 3 -5 6 6 6 11 1 17 -2 13 -5z m1310 0 c-3
-3 -12 -4 -19 -1 -8 3 -5 6 6 6 11 1 17 -2 13 -5z m50 -10 c-3 -3 -12 -4 -19
-1 -8 3 -5 6 6 6 11 1 17 -2 13 -5z m-854 -11 c-7 -2 -21 -2 -30 0 -10 3 -4 5
12 5 17 0 24 -2 18 -5z m894 1 c-3 -3 -12 -4 -19 -1 -8 3 -5 6 6 6 11 1 17 -2
13 -5z m-1079 -11 c-16 -2 -40 -2 -55 0 -16 2 -3 4 27 4 30 0 43 -2 28 -4z
m359 0 c-20 -2 -52 -2 -70 0 -17 2 0 4 38 4 39 0 53 -2 32 -4z m-2054 -10
c-29 -2 -78 -2 -110 0 -32 2 -8 3 52 3 61 0 87 -1 58 -3z m1575 0 c-10 -2 -26
-2 -35 0 -10 3 -2 5 17 5 19 0 27 -2 18 -5z m605 0 c-7 -2 -21 -2 -30 0 -10 3
-4 5 12 5 17 0 24 -2 18 -5z m-2445 -10 c-16 -2 -40 -2 -55 0 -16 2 -3 4 27 4
30 0 43 -2 28 -4z m435 0 c-7 -2 -21 -2 -30 0 -10 3 -4 5 12 5 17 0 24 -2 18
-5z m1320 0 c-7 -2 -19 -2 -25 0 -7 3 -2 5 12 5 14 0 19 -2 13 -5z m770 0 c-7
-2 -21 -2 -30 0 -10 3 -4 5 12 5 17 0 24 -2 18 -5z m-2006 -9 c-3 -3 -12 -4
-19 -1 -8 3 -5 6 6 6 11 1 17 -2 13 -5z m1180 0 c-3 -3 -12 -4 -19 -1 -8 3 -5
6 6 6 11 1 17 -2 13 -5z m911 -1 c-10 -2 -26 -2 -35 0 -10 3 -2 5 17 5 19 0
27 -2 18 -5z m-2025 -10 c-7 -2 -19 -2 -25 0 -7 3 -2 5 12 5 14 0 19 -2 13 -5z
m1064 1 c-3 -3 -12 -4 -19 -1 -8 3 -5 6 6 6 11 1 17 -2 13 -5z m1026 -1 c-7
-2 -19 -2 -25 0 -7 3 -2 5 12 5 14 0 19 -2 13 -5z m-2036 -9 c-3 -3 -12 -4
-19 -1 -8 3 -5 6 6 6 11 1 17 -2 13 -5z m960 0 c-3 -3 -12 -4 -19 -1 -8 3 -5
6 6 6 11 1 17 -2 13 -5z m1126 -1 c-7 -2 -19 -2 -25 0 -7 3 -2 5 12 5 14 0 19
-2 13 -5z m-2036 -9 c-3 -3 -12 -4 -19 -1 -8 3 -5 6 6 6 11 1 17 -2 13 -5z
m2090 0 c-3 -3 -12 -4 -19 -1 -8 3 -5 6 6 6 11 1 17 -2 13 -5z m-1250 -10 c-3
-3 -12 -4 -19 -1 -8 3 -5 6 6 6 11 1 17 -2 13 -5z m1306 -1 c-7 -2 -19 -2 -25
0 -7 3 -2 5 12 5 14 0 19 -2 13 -5z m54 -9 c-3 -3 -12 -4 -19 -1 -8 3 -5 6 6
6 11 1 17 -2 13 -5z m40 -10 c-3 -3 -12 -4 -19 -1 -8 3 -5 6 6 6 11 1 17 -2
13 -5z m40 -10 c-3 -3 -12 -4 -19 -1 -8 3 -5 6 6 6 11 1 17 -2 13 -5z m40 -10
c-3 -3 -12 -4 -19 -1 -8 3 -5 6 6 6 11 1 17 -2 13 -5z"/>
<path d="M2887 5128 c-41 -25 -77 -86 -77 -135 0 -16 10 -49 23 -73 40 -76
131 -103 197 -57 55 37 74 71 74 132 0 61 -19 95 -74 133 -42 28 -94 28 -143
0z m168 -32 c37 -27 -3 -57 -63 -48 -50 8 -30 62 23 62 12 0 30 -6 40 -14z
m-85 -91 c10 -12 10 -18 0 -29 -14 -18 -40 -10 -40 13 0 32 20 40 40 16z"/>
<path d="M1475 5060 c-90 -59 -86 -203 7 -260 91 -55 208 17 208 129 0 52 -31
111 -70 134 -38 23 -108 22 -145 -3z m173 -32 c18 -18 -5 -38 -43 -38 -39 0
-67 26 -44 41 20 13 73 11 87 -3z m-95 -82 c3 -7 0 -19 -6 -25 -14 -14 -38 5
-30 25 7 18 29 18 36 0z"/>
<path d="M1985 3180 c-3 -5 39 -90 95 -187 56 -98 131 -238 166 -310 l65 -133
54 0 55 0 -37 68 c-50 92 -156 263 -211 342 -48 68 -173 230 -178 230 -2 0 -6
-4 -9 -10z"/>
<path d="M1981 3130 c-1 -8 207 -571 212 -576 3 -3 19 -4 35 -2 l30 3 -122
260 c-117 249 -155 326 -155 315z"/>
<path d="M2483 2333 c-97 -115 -229 -269 -292 -343 -64 -74 -173 -194 -243
-266 -71 -73 -128 -140 -128 -150 0 -11 -3 -30 -7 -44 -6 -24 -5 -24 29 8 18
17 37 32 41 32 5 0 175 -143 252 -212 6 -5 -63 -81 -175 -195 -183 -184 -183
-185 -45 -56 77 72 162 154 189 181 45 46 76 58 76 29 0 -7 -87 -99 -192 -207
-106 -107 -159 -163 -118 -126 41 38 131 127 200 198 119 123 126 129 145 114
19 -14 12 -23 -180 -217 -158 -161 -176 -180 -82 -94 65 59 156 148 202 197
79 82 86 88 107 77 22 -12 14 -21 -182 -211 -112 -109 -200 -198 -196 -198 5
0 98 88 206 196 l198 196 33 -31 34 -31 -198 -194 -197 -194 92 -75 c85 -69
94 -74 113 -61 11 8 104 97 206 199 l186 184 41 -30 c33 -24 40 -34 33 -47 -5
-9 -95 -102 -200 -206 -134 -132 -188 -193 -181 -200 7 -7 71 51 213 192 111
111 207 202 212 202 6 0 23 -10 38 -23 l29 -23 -211 -206 c-116 -114 -206
-210 -202 -213 5 -3 104 87 219 200 115 113 214 205 218 205 5 -1 20 -10 34
-21 l24 -21 -124 -121 c-69 -68 -165 -160 -215 -206 -49 -45 -65 -63 -35 -39
30 23 127 114 216 201 89 86 165 157 169 157 4 0 20 -9 36 -21 16 -11 29 -17
29 -12 0 5 -14 17 -31 27 l-31 18 20 21 20 20 30 -22 c17 -11 34 -21 39 -21 4
0 -7 10 -24 21 -18 12 -33 24 -33 28 0 4 55 65 123 137 67 72 133 144 146 160
13 16 -45 -43 -131 -131 l-155 -159 -27 17 c-15 10 -26 22 -24 27 2 5 78 87
171 184 92 96 167 180 167 188 -1 7 -83 -72 -183 -176 l-183 -189 -37 25 -37
25 128 140 c203 222 274 310 270 332 -2 15 -30 -12 -116 -112 -61 -73 -156
-179 -210 -236 l-98 -105 -42 30 c-23 16 -42 32 -42 37 0 4 26 36 58 70 65 70
256 293 350 408 l62 76 -36 119 c-20 66 -39 127 -41 137 -3 9 -9 17 -13 17 -5
0 -57 -62 -117 -137 -109 -139 -399 -478 -446 -522 l-26 -23 -30 22 c-17 12
-31 25 -31 30 0 5 28 39 63 77 87 95 242 282 317 383 85 116 213 310 207 316
-2 3 -26 -29 -52 -71 -104 -168 -250 -359 -426 -560 -119 -137 -124 -141 -144
-125 -13 10 -8 20 31 64 84 94 239 280 305 366 99 128 267 386 258 395 -2 2
-32 -42 -67 -98 -116 -188 -274 -397 -450 -596 -52 -58 -96 -108 -98 -110 -5
-6 -34 20 -34 30 0 5 31 42 68 83 217 234 446 535 526 695 38 74 31 77 -8 4
-98 -183 -298 -444 -548 -718 -48 -52 -57 -58 -71 -46 -15 12 -6 25 81 120
138 152 260 306 357 451 87 130 189 309 182 317 -3 2 -28 -39 -56 -92 -101
-187 -270 -422 -444 -617 -39 -44 -88 -99 -108 -121 l-36 -41 -131 107 c-140
115 -148 122 -132 132 27 17 473 508 566 625 104 129 198 280 174 280 -5 0
-89 -93 -187 -207z m-428 -838 c66 -54 121 -101 123 -105 1 -4 -4 -13 -12 -20
-13 -10 -36 6 -146 100 -106 91 -128 115 -119 126 7 8 16 11 23 6 6 -5 65 -53
131 -107z m155 -125 c13 -8 13 -11 -2 -27 -21 -20 -45 -5 -35 21 7 18 16 20
37 6z m60 -49 c0 -5 -7 -14 -16 -21 -12 -11 -18 -10 -31 3 -23 22 0 52 28 36
10 -5 19 -13 19 -18z m30 -21 c13 -8 13 -11 -2 -26 -14 -14 -20 -15 -33 -4
-12 10 -13 16 -4 26 13 16 19 17 39 4z m75 -55 c18 -14 18 -16 3 -31 -15 -15
-19 -15 -47 5 -34 24 -37 31 -19 49 11 11 24 7 63 -23z m266 -192 c43 -31 45
-35 24 -53 -12 -10 -22 -8 -55 14 -43 28 -47 35 -28 54 16 16 14 16 59 -15z
m124 -87 c19 -14 19 -16 3 -32 -15 -16 -19 -15 -53 6 -34 21 -35 23 -19 41 17
19 27 17 69 -15z m95 -72 c0 -6 -7 -17 -15 -24 -11 -9 -20 -8 -45 10 -30 21
-30 23 -14 41 16 18 18 18 45 2 16 -10 29 -23 29 -29z"/>
<path d="M2554 2501 c-42 -31 -169 -166 -379 -401 -71 -80 -169 -187 -217
-239 -56 -60 -92 -108 -98 -130 -5 -19 -8 -36 -7 -37 3 -3 216 232 417 461 68
77 175 193 239 258 110 112 130 150 45 88z"/>
</g>
</svg>
